<svg version="1.2" xmlns="http://www.w3.org/2000/svg" viewBox="0 0 157 162" width="157" height="162">
	<title>No trading or platform fees</title>
	<style>
		.s0 { fill: #ffc500 } 
	</style>
	<g>
	</g>
	<g>
		<path class="s0" d="m81.7 2.2v70.5l66.5-24.7c0 0-6.3-17-25-31.3-19.9-15.1-41.5-14.6-41.5-14.6z"/>
		<path class="s0" d="m67.4 21.7l0.9 64.3-62.5-14.3c0 0 1.7-19.7 22.3-35.8 20.5-16 39.3-14.2 39.3-14.2z"/>
		<path class="s0" d="m5.8 76.2l62.5 14.4-21.5 61.5c0 0-24.7-10.9-35.7-31.3-12.5-23.2-5.3-44.6-5.3-44.6z"/>
		<path class="s0" d="m135.3 68.1l-62.6 23.2-21.4 62.5c0 0 8.1 2.7 19.7 2.7 11.6 0 22.3-3.8 22.3-3.8 0 0-12.5-8.7-14.3-23.9-1.8-15.2 3.6-25.9 7.1-31.2 3.6-5.4 12.5-13.4 22.4-15.2 9.8-1.8 14.3-1.8 20.5 0 6.3 1.8 8.9 4.5 8.9 4.5l-2.6-18.8z"/>
		<path class="s0" d="m119.2 86.9c-19.3 0-34.9 15.5-34.9 34.8 0 19.2 15.6 34.8 34.9 34.8 19.2 0 34.8-15.6 34.8-34.8 0-19.2-15.6-34.8-34.8-34.8zm-22.3 21.2c0-4.6 3.7-8.3 8.2-8.3 4.6 0 8.3 3.7 8.3 8.3 0 4.5-3.7 8.2-8.3 8.2-4.5 0-8.2-3.7-8.2-8.2zm9 29.7c-1 1.1-2.7 1.1-3.8 0-1-1-1-2.7 0-3.7l30.3-30.4c1.1-1 2.8-1 3.8 0 1.1 1.1 1.1 2.8 0 3.8zm26.9 5.3c-4.6 0-8.3-3.7-8.3-8.2 0-4.6 3.7-8.3 8.3-8.3 4.6 0 8.3 3.7 8.3 8.3 0 4.5-3.7 8.2-8.3 8.2z"/>
		<path fill-rule="evenodd" class="s0" d="m132.6 138.7c-2 0-3.5-1.6-3.5-3.5 0-2 1.5-3.6 3.5-3.6 1.9 0 3.5 1.6 3.5 3.6 0 1.9-1.6 3.5-3.5 3.5z"/>
		<path fill-rule="evenodd" class="s0" d="m104.9 111.9c-2 0-3.5-1.6-3.5-3.5 0-2 1.5-3.6 3.5-3.6 1.9 0 3.5 1.6 3.5 3.6 0 1.9-1.6 3.5-3.5 3.5z"/>
	</g>
</svg>