<svg version="1.2" xmlns="http://www.w3.org/2000/svg" viewBox="0 0 133 165" width="133" height="165">
	<title>Expert account managers available</title>
	<style>
		.s0 { fill: #ffc500 } 
	</style>
	<g>
	</g>
	<g>
		<path fill-rule="evenodd" class="s0" d="m22.2 41.2h6.1c3.4 0 6.2 2.8 6.2 6.2v21.3c0 3.4-2.8 6.2-6.2 6.2h-6.1c-3.4 0-6.2-2.8-6.2-6.2v-21.3c0-3.4 2.8-6.2 6.2-6.2z"/>
		<path fill-rule="evenodd" class="s0" d="m106.6 41.2h6c3.5 0 6.3 2.8 6.3 6.2v21.3c0 3.4-2.8 6.2-6.3 6.2h-6c-3.5 0-6.3-2.8-6.3-6.2v-21.3c0-3.4 2.8-6.2 6.3-6.2z"/>
		<path class="s0" d="m122.3 114.5c-5.9-8.8-27.7-18.8-33.3-21.3-0.8-0.4-1.7-0.3-2.5 0.2-1.2 0.9-3.4 2.3-5.6 3.4-2.3 1.2-5.3 1.9-7.1 2.3-0.8 0.2-1.5 0.8-1.8 1.6l-2.2 6.2c-0.8 2.2-3.9 2.2-4.8 0.1l-2.1-5.5c-0.3-0.8-1-1.4-1.9-1.5-1.7-0.4-4.8-1.2-7.1-2.3-2.1-1.1-4.1-2.8-5.3-3.9-0.8-0.7-1.9-0.9-2.9-0.4-5.7 2.9-24.9 12.8-30.6 17.8-7.1 6.2-10.8 24.2-11.6 28.5-0.1 0.7 0 1.3 0.4 1.9 2.7 4 16.7 20.3 64.6 19.4 47.8-0.8 59.9-15.8 62.1-19.5 0.3-0.5 0.4-1.1 0.4-1.6-0.6-3.5-2.9-16.6-8.8-25.4zm-19.4 12.7h-17.7c-1.4 0-2.5-1.1-2.5-2.5 0-1.4 1.1-2.6 2.5-2.6h17.7c1.4 0 2.6 1.2 2.6 2.6 0 1.4-1.2 2.5-2.6 2.5z"/>
		<path fill-rule="evenodd" class="s0" d="m65.6 75.7h6.2c2.3 0 4.1 1.8 4.1 4.1v2c0 2.3-1.8 4.1-4.1 4.1h-6.2c-2.3 0-4.1-1.8-4.1-4.1v-2c0-2.3 1.8-4.1 4.1-4.1z"/>
		<path class="s0" d="m31.4 41.2c0 0-0.2-6.8 3.1-13.5 3.4-6.8 13.6-16.9 33-16.5 19.3 0.4 26.1 7.2 30.3 13.1 4.2 5.9 5.9 16 5.9 18.5 0 2.6 6.7 0.9 6.7 0.9 0 0 0-13.5-4.2-21.1-4.2-7.6-16.7-19.4-38.7-18.6-22 0.9-29.1 6.9-36.1 14.4-7 7.6-7.9 27-7.9 27l7.6-1.7 0.3-2.6z"/>
		<path class="s0" d="m75 78.3c0 0 9.1 0.8 17.2 0 8.1-0.9 14-5.1 14-5.1h6.1c0 0-6.1 6.8-12.8 8.4-6.8 1.7-25.8 0.9-25.8 0.9l1.3-4.2z"/>
		<path class="s0" d="m35.7 40.6q-0.3-0.3-0.3-0.8c0.2-2 1.2-9.3 5-13.8 4.2-5.1 11.4-10.5 26.8-10.3 15.4 0.2 22.1 5.2 24.7 7.8 5.9 5.9 7 16.8 7.3 16.8 0.3 0-3.2 2.6-3.2 5.1 0.1 2.5-0.7 25.3 0.1 26.1q0 0.1 0 0.1c0.6 0.5 0.4 1.4-0.3 1.7-1.8 0.7-4.7 1.6-8.1 1.6h-9.7q-0.4 0-0.7-0.3c-0.9-0.8-3.6-3.1-9-3.1-6.8 0-11 4.3-11 8.5 0 4.2 0.8 9.3 10.1 9.3 7.1 0 9.3-1.5 9.9-2.2 0.2-0.2 0.5-0.4 0.8-0.4h8.1c0.9 0 1.4 1.1 0.7 1.8-2.5 2.6-8.4 7.3-18.2 8.8-12.4 1.8-27.8-17.4-31-21.6-0.4-0.4-0.3-1 0.1-1.4 0.7-0.6 1.8-1.7 1.8-2.8 0-1.7 0-25.3-0.9-27-0.6-1.3-2.3-3.1-3-3.9z"/>
	</g>
</svg>