<svg version="1.2" xmlns="http://www.w3.org/2000/svg" viewBox="0 0 154 150" width="154" height="150">
	<title>Navigable interface</title>
	<style>
		.s0 { fill: #ffc400 } 
	</style>
	<g>
	</g>
	<path class="s0" d="m132.9 9h-111.4c-6.2 0-11.2 5-11.2 11.1v111.4c0 6.2 5 11.2 11.2 11.2h111.4c6.1 0 11.1-5 11.1-11.2v-111.3c0-6.2-5-11.2-11.1-11.2zm-26.8 13.4h22.3c1.2 0 2.2 1 2.2 2.2 0 1.2-1 2.2-2.2 2.2h-22.3c-1.2 0-2.2-1-2.2-2.2 0-1.2 1-2.2 2.2-2.2zm-57.9 0c1.2 0 2.2 1 2.2 2.2 0 1.2-1 2.2-2.2 2.2-1.2 0-2.2-1-2.2-2.2 0-1.2 1-2.2 2.2-2.2zm-11.1 0c1.2 0 2.2 1 2.2 2.2 0 1.2-1 2.2-2.2 2.2-1.3 0-2.3-1-2.3-2.2 0-1.2 1-2.2 2.3-2.2zm-11.2 0c1.3 0 2.3 1 2.3 2.2 0 1.2-1 2.2-2.3 2.2-1.2 0-2.2-1-2.2-2.2 0-1.2 1-2.2 2.2-2.2zm113.7 109.1c0 3.7-3 6.7-6.7 6.7h-111.4c-3.7 0-6.7-3-6.7-6.7v-91.3h124.8c0 0 0 91.3 0 91.3z"/>
	<path class="s0" d="m37.1 129.3h13.3c3.7 0 6.7-3 6.7-6.7v-13.4c0-3.6-3-6.6-6.7-6.6h-4.4v-6.7h28.9v6.7h-4.4c-3.7 0-6.7 3-6.7 6.7v13.3c0 3.7 3 6.7 6.7 6.7h13.3c3.7 0 6.7-3 6.7-6.7v-13.4c0-3.6-3-6.6-6.7-6.6h-4.4v-6.7h28.9v6.7h-4.4c-3.7 0-6.7 3-6.7 6.7v13.3c0 3.7 3 6.7 6.7 6.7h13.3c3.7 0 6.7-3 6.7-6.7v-13.4c0-3.6-3-6.6-6.7-6.6h-4.4v-8.9c0-1.3-1-2.3-2.2-2.3h-31.2v-4.4h13.3c3.7 0 6.7-3 6.7-6.7v-26.8c0-3.6-3-6.6-6.7-6.6h-31.1c-3.7 0-6.7 3-6.7 6.6v26.8c0 3.7 3 6.7 6.7 6.7h13.3v4.4h-31.2c-1.2 0-2.2 1-2.2 2.3v8.9h-4.5c-3.6 0-6.6 3-6.6 6.7v13.3c0 3.7 3 6.7 6.6 6.7zm75.8-15.6c1.2 0 2.2 1 2.2 2.2 0 1.3-1 2.3-2.2 2.3h-4.5c-1.2 0-2.2-1-2.2-2.3 0-1.2 1-2.2 2.2-2.2zm-37.8-57.9h13.3c1.3 0 2.3 1 2.3 2.2 0 1.2-1 2.2-2.3 2.2h-13.3c-1.3 0-2.3-1-2.3-2.2 0-1.2 1-2.2 2.3-2.2zm-9 0c1.3 0 2.3 1 2.3 2.2 0 1.2-1 2.2-2.3 2.2-1.2 0-2.2-1-2.2-2.2 0-1.2 1-2.2 2.2-2.2zm0 8.9h22.3c1.3 0 2.3 1 2.3 2.2 0 1.3-1 2.3-2.3 2.3h-22.3c-1.2 0-2.2-1-2.2-2.3 0-1.2 1-2.2 2.2-2.2zm0 13.4c-1.2 0-2.2-1-2.2-2.2 0-1.3 1-2.3 2.2-2.3h22.3c1.3 0 2.3 1 2.3 2.3 0 1.2-1 2.2-2.3 2.2zm13.4 35.6c1.2 0 2.2 1 2.2 2.3 0 1.2-1 2.2-2.2 2.2h-4.5c-1.2 0-2.2-1-2.2-2.2 0-1.3 1-2.3 2.2-2.3zm-37.8 0h4.4c1.3 0 2.3 1 2.3 2.3 0 1.2-1 2.2-2.3 2.2h-4.4c-1.3-0.1-2.2-1.1-2.2-2.3 0.1-1.2 1-2.1 2.2-2.2z"/>
</svg>