<svg version="1.2" xmlns="http://www.w3.org/2000/svg" viewBox="0 0 158 160" width="158" height="160">
	<title>Offering open to most countries (excluding the USA)</title>
	<style>
		.s0 { fill: none;stroke: #ffc500;stroke-miterlimit:10;stroke-width: 3 } 
		.s1 { fill: #ffc500 } 
	</style>
	<g>
	</g>
	<g>
		<path fill-rule="evenodd" class="s0" d="m78 149.3c-36.7 0-66.4-29.7-66.4-66.4 0-36.7 29.7-66.3 66.4-66.3 36.7 0 66.3 29.6 66.3 66.3 0 36.7-29.6 66.4-66.3 66.4z"/>
		<path class="s1" d="m12.7 85.1h24.9c0 0 10.4 13.9 19 22.5 8.5 8.5 20.3 17.1 20.3 17.1 0 0-20.3 13.9-24.6 16-4.3 2.2-5.7 0.7-5.7 0.7 0 0 1.4 1.5 2.5-1.7 1-3.3 0-6.5 4.3-10.7 4.2-4.3 3.2-9.7 2.1-12.9-1.1-3.2-4.8-5.9-8-5.9-3.2 0-9.7 2.2-13.9 1.1-4.3-1.1-8.6-7.5-11.8-8.6-3.2-1-6.4 0-6.4 0l-3.8-13.3z"/>
		<path class="s1" d="m52.8 143.4c0 0 7.5-4.3 13.9-8.6 6.5-4.2 12.6-8.7 12.6-8.7 0 0 6.7 5.5 13.1 9.8 6.5 4.3 12.3 7.5 12.3 7.5 0 0-19.6 5.4-22.4 5.9-2.7 0.5-27-4.1-28.2-4.4-1.3-0.4-1.3-1.5-1.3-1.5z"/>
		<path class="s1" d="m107.4 141.3c0 0-8.5-4.3-15-8.6-6.4-4.3-10.7-8.6-10.7-8.6 0 0 8.6-6.4 13.9-11.7 5.4-5.4 11.8-11.8 11.8-11.8l-2.1-2.1c0 0-7.5 7.5-13.9 12.8l-12.9 10.7c0 0-16-13.9-22.5-21.4-6.4-7.5-12.8-15.5-12.8-15.5h42.6c0 0-0.9 3.7 2.3 5.9 3.3 2.1 9.7 0 14 1 4.2 1.1 8.5 5.4 9.6 8.6 1.1 3.2-1.1 11.3 0 16.9 1.1 5.6 9.6 15.2 9.6 15.2z"/>
		<path class="s1" d="m106.3 97.4c0 0 5.4-6.4 7.5-8.6 2.2-2.1 3.3-3.7 3.3-3.7l4.2 0.2c0 0-7.1 8-9.6 11-5.4 6.4-5.4 1.1-5.4 1.1z"/>
		<path class="s1" d="m139.3 57.5c0 0-3 6.7-7.3 13.1-4.3 6.4-8.5 10.7-8.5 10.7l20.8 0.3c0 0-5-24.1-5-24.1z"/>
		<path class="s1" d="m31 36.1c0 0 3.6 4.6 9 6.7 5.3 2.1 8.5 3.2 8.5 3.2 0 0 4-8.8 8.6-15 3.2-4.3 11.8-12.8 11.8-12.8 0 0-18.2 2.1-23.6 6.4-5.3 4.3-14.4 11.5-14.4 11.5z"/>
		<path class="s1" d="m126.4 37.6c0 0-5.1 4.1-9.3 6.3-4.3 2.1-7.5 3.2-7.5 3.2 0 0-2.2-8.6-6.5-15-4.2-6.4-13.2-14.5-13.2-14.5 0 0 19.6 5.1 26 10.9 6.5 5.7 10.5 9.1 10.5 9.1z"/>
		<path class="s1" d="m127.8 40.7c0 0-3.5 3.2-8.2 5.3-4.7 2.1-9 3.2-9 3.2 0 0 3.2 7.5 4.3 16.1 1.1 8.5 0.8 16.3 0.8 16.3l3.5-0.3c0 0 8.3-9.8 11.7-15 4.3-6.4 7.5-12.8 7.5-12.8l-10.2-12.8h-0.5z"/>
		<path class="s1" d="m80.7 54.6c0 0 8.5 0 14.9-1.1 8.8-1.4 12.6-3.3 12.6-3.3 0 0 2.4 6.5 3.5 16.2 0.6 5.3 0 15 0 15h-30.8l-0.2-26.8z"/>
		<path class="s1" d="m80.7 17.6v33.7c0 0 7.8-0.1 14-1.1 6.3-1 11.6-3.1 11.6-3.1 0 0-2.8-10.1-9.6-18.2-5.3-6.4-9.6-10.7-9.6-10.7 0 0-6.4-0.6-6.4-0.6z"/>
		<path class="s1" d="m77.5 17.1v34.2c0 0-7.4-0.1-14.4-1.1-7.1-1-11.6-3.1-11.6-3.1 0 0 2.1-6.9 8.8-16.1 8.6-11.7 13.9-13.9 13.9-13.9h3.2z"/>
		<path class="s1" d="m77.5 81.3h-31.3c0 0 0.2-10.7 1.3-17.1 1-6.4 4-13.4 4-13.4 0 0 4.5 1.6 12 2.7 7.5 1.1 13.9 1.4 13.9 1.4 0 0 0 26.4 0.1 26.4z"/>
		<path class="s1" d="m12.3 81.3h22.6c0 0-7.8-9.6-9.9-12.8-2.1-3.2-6.4-11.8-6.4-11.8l-3.2 4c0 0-3.1 20.6-3.1 20.6z"/>
		<path class="s1" d="m28.5 38.8c0 0 2.9 4 8.8 7.2 5.9 3.2 11 4.2 11 4.2 0 0-3 6.6-4 14-1.1 7.4-1.1 17.3-1.1 17.3l-4.1-0.1c0 0-6.1-7.1-10.6-13.8-4.6-6.6-8.8-15.2-8.8-15.2z"/>
		<path class="s1" d="m17.5 54.6c0 0-13.6-23.6-4.7-36.4 9-12.9 41.1 4.3 41.1 4.3l-4.3 2.1c0 0-19.2-13.9-32.1-7.5-13.3 6.7 2.1 34.2 2.1 34.2z"/>
		<path class="s1" d="m51.3 144.7c0 0-23.5 13.6-36.3 4.6-12.9-8.9 2.5-36.9 2.5-36.9l3.2 3.2c0 0-13.2 16.2-6.8 29.1 6.7 13.3 34.2-2.2 34.2-2.2z"/>
		<path class="s1" d="m140.3 110.6c0 0 13.6 23.5 4.7 36.3-9 12.9-39.1-2.5-39.1-2.5l3.7-2.1c0 0 17.8 12.1 30.7 5.7 13.3-6.7-2.2-34.2-2.2-34.2l2.2-3.3z"/>
		<path class="s1" d="m106.2 22.7c0 0 23.5-13.6 36.4-4.7 12.8 9-2.6 39.1-2.6 39.1l-2.6-3.6c0 0 12.7-17.9 6.2-30.8-6.6-13.3-34.2 2.1-34.2 2.1z"/>
	</g>
</svg>