<svg version="1.2" xmlns="http://www.w3.org/2000/svg" viewBox="0 0 144 148" width="144" height="148">
	<title>Simulator lets you develop profitable trading strategies</title>
	<style>
		.s0 { fill: #ffc400 } 
	</style>
	<g>
	</g>
	<g>
		<path class="s0" d="m47.6 35.6c3.1 0 5.7-2.5 5.7-5.7 0-3.1-2.6-5.7-5.7-5.7-3.2 0-5.7 2.6-5.7 5.7 0 3.2 2.5 5.7 5.7 5.7zm45.5-18.2c3.2 0 5.7-2.6 5.7-5.7 0-3.2-2.5-5.7-5.7-5.7-3.1 0-5.7 2.5-5.7 5.7 0 3.1 2.6 5.7 5.7 5.7zm-86.6 0h2.3v2.3c0 1.2 0.9 2.3 2.2 2.4 1.3 0 2.3-1 2.4-2.2q0-0.1 0-0.2v-2.3h2.3c1.2 0.1 2.3-0.9 2.4-2.1 0-1.3-0.9-2.4-2.2-2.4q-0.1 0-0.2 0h-2.3v-2.3c0-1.3-0.9-2.3-2.2-2.4-1.3-0.1-2.3 0.9-2.4 2.2q0 0.1 0 0.2v2.2h-2.3c-1.2 0-2.3 0.9-2.4 2.2-0.1 1.2 0.9 2.3 2.2 2.4q0.1 0 0.2 0zm123.1 15.9h2.3v2.3c0 1.3 1.1 2.3 2.4 2.2 1.1 0 2.1-1 2.1-2.2v-2.3h2.3c1.3 0 2.3-1 2.3-2.2 0-1.3-1-2.3-2.3-2.3h-2.3v-2.3c0-1.3-1.1-2.2-2.3-2.2-1.2 0.1-2.2 1-2.2 2.2v2.3h-2.3c-1.3 0-2.3 1-2.3 2.3 0 1.2 1 2.2 2.3 2.2zm-9.1 22.8c-1.3 0-2.3 1.1-2.3 2.3v16c0 1.2 1 2.2 2.3 2.2 1.2 0 2.3-1 2.3-2.2v-16c0-1.3-1.1-2.3-2.3-2.3zm0 29.6c1.2 0 2.3-1 2.3-2.2 0-1.3-1.1-2.3-2.3-2.3-1.3 0-2.3 1-2.3 2.3 0 1.2 1 2.2 2.3 2.2z"/>
		<path class="s0" d="m138.7 124.5h-6.8v-72.9c0-3.8-3.1-6.9-6.9-6.9h-104.8c-3.8 0-6.8 3.1-6.8 6.9v72.9h-6.9c-1.2 0-2.2 1-2.2 2.3 0 8.8 7.1 15.9 15.9 15.9h104.9c8.8 0 15.9-7.1 15.9-15.9 0-1.3-1-2.3-2.3-2.3zm-52.4 9.1h-27.4c-1.9 0-3.6-1.9-4.2-4.5h35.9c-0.7 2.6-2.4 4.5-4.3 4.5zm41-9.1h-109.4v-72.9c0-1.3 1.1-2.3 2.3-2.3h104.8c1.3 0 2.3 1 2.3 2.3z"/>
		<path class="s0" d="m120.5 115.4h-5.7v-16c0-1.2-1-2.3-2.3-2.3h-11.4c-1.2 0-2.3 1.1-2.3 2.3v16h-6.8v-25.1c0-1.3-1-2.3-2.3-2.3h-11.4c-1.3 0-2.3 1-2.3 2.3v25.1h-6.8v-38.8c0-1.2-1-2.3-2.3-2.3h-11.4c-1.3 0-2.3 1.1-2.3 2.3v38.8h-6.8v-54.7c0-1.3-1-2.3-2.3-2.3h-11.4c-1.2 0-2.3 1-2.3 2.3v54.7h-5.7c-1.2 0-2.2 1.1-2.1 2.3 0 1.2 1 2.2 2.1 2.2h95.8c1.2 0 2.2-1 2.2-2.3 0-1.2-1-2.2-2.2-2.2zm-43.3-43.3c0.6 0 1.1-0.3 1.6-0.7l3.9-3.9h24.1c1.2 0 2.3-1 2.3-2.3 0-1.2-1.1-2.2-2.3-2.2h-25.1c-0.6 0-1.2 0.2-1.6 0.6l-4.6 4.6c-0.8 0.9-0.8 2.3 0 3.2 0.5 0.4 1 0.7 1.6 0.7zm16-13.7h13.7c1.2 0 2.3-1 2.3-2.3 0-1.2-1.1-2.3-2.3-2.3h-13.7c-1.3 0-2.3 1.1-2.3 2.3 0 1.3 1 2.3 2.3 2.3z"/>
	</g>
</svg>