<svg version="1.2" xmlns="http://www.w3.org/2000/svg" viewBox="0 0 125 163" width="125" height="163">
	<title>verify</title>
	<style>
		.s0 { fill: none;stroke: #ffc400;stroke-miterlimit:10;stroke-width: 3 } 
		.s1 { fill: none;stroke: #ffc400;stroke-linecap: round;stroke-miterlimit:10;stroke-width: 3 } 
	</style>
	<g>
		<path class="s0" d="m94.4 62.1c-15.3 0-27.6-12.4-27.6-27.6 0-3.9 0.8-7.7 2.3-11.1h-58.1v124.6h92.4v-87.4c-2.8 1-5.8 1.5-9 1.5z"/>
		<path fill-rule="evenodd" class="s0" d="m94.4 62.1c-15.3 0-27.6-12.3-27.6-27.6 0-15.3 12.3-27.6 27.6-27.6 15.3 0 27.6 12.3 27.6 27.6 0 15.3-12.3 27.6-27.6 27.6z"/>
		<path fill-rule="evenodd" class="s0" d="m41.6 74.2c-10 0-18-8.1-18-18.1 0-10 8-18.1 18-18.1 10 0 18.1 8.1 18.1 18.1 0 10-8.1 18.1-18.1 18.1z"/>
		<path fill-rule="evenodd" class="s0" d="m41.1 57.1c-3 0-5.5-2.5-5.5-5.5 0-3.1 2.5-5.5 5.5-5.5 3.1 0 5.6 2.4 5.6 5.5 0 3-2.5 5.5-5.6 5.5z"/>
		<path class="s0" d="m28.3 68.3c0 0 3.8-6.6 12.8-7.2 9.1-0.5 13.5 7.5 13.5 7.5"/>
		<path fill-rule="evenodd" class="s0" d="m25.1 92.8h63.3"/>
		<path fill-rule="evenodd" class="s0" d="m25.1 105.3h63.3"/>
		<path fill-rule="evenodd" class="s0" d="m25.1 118.4h63.3"/>
		<path fill-rule="evenodd" class="s0" d="m25.1 131.4h41.6"/>
		<path fill-rule="evenodd" class="s1" d="m80.3 34.5l8.1 9"/>
		<path fill-rule="evenodd" class="s1" d="m107.9 24.9l-19 18.1"/>
	</g>
</svg>